<?xml version="1.0" encoding="UTF-8" standalone="no"?>
<svg
   xmlns:dc="http://purl.org/dc/elements/1.1/"
   xmlns:cc="http://creativecommons.org/ns#"
   xmlns:rdf="http://www.w3.org/1999/02/22-rdf-syntax-ns#"
   xmlns:svg="http://www.w3.org/2000/svg"
   xmlns="http://www.w3.org/2000/svg"
   xmlns:sodipodi="http://sodipodi.sourceforge.net/DTD/sodipodi-0.dtd"
   xmlns:inkscape="http://www.inkscape.org/namespaces/inkscape"
   width="16"
   height="16"
   viewBox="0 0 4.2333332 4.2333336"
   version="1.1"
   id="svg8"
   inkscape:version="1.0rc1 (09960d6f05, 2020-04-09)"
   sodipodi:docname="toaztr_favicon.svg">
  <defs
     id="defs2">
    <clipPath
       clipPathUnits="userSpaceOnUse"
       id="clipPath4074">
      <rect
         style="opacity:1;fill:#ffffff;fill-opacity:1;stroke-width:0.306281"
         id="rect4076"
         width="551.2038"
         height="342.1265"
         x="3429.7078"
         y="965.99182" />
    </clipPath>
  </defs>
  <sodipodi:namedview
     units="px"
     id="base"
     pagecolor="#ffffff"
     bordercolor="#666666"
     borderopacity="1.0"
     inkscape:pageopacity="0.0"
     inkscape:pageshadow="2"
     inkscape:zoom="45.254834"
     inkscape:cx="7.4266562"
     inkscape:cy="8.1332188"
     inkscape:document-units="mm"
     inkscape:current-layer="layer5"
     inkscape:document-rotation="0"
     showgrid="false"
     inkscape:window-width="1920"
     inkscape:window-height="1017"
     inkscape:window-x="1912"
     inkscape:window-y="-8"
     inkscape:window-maximized="1" />
  <metadata
     id="metadata5">
    <rdf:RDF>
      <cc:Work
         rdf:about="">
        <dc:format>image/svg+xml</dc:format>
        <dc:type
           rdf:resource="http://purl.org/dc/dcmitype/StillImage" />
        <dc:title></dc:title>
      </cc:Work>
    </rdf:RDF>
  </metadata>
  <g
     inkscape:groupmode="layer"
     id="layer5"
     inkscape:label="icon"
     transform="translate(-59.944257,-51.996237)">
    <path
       style="opacity:1;fill:#2a7fff;fill-opacity:1;stroke-width:0.016348"
       d="m 64.114086,55.795736 c 0,-0.04394 -0.08387,-0.194703 -0.154054,-0.276932 -0.09865,-0.115576 -0.214411,-0.212638 -0.405208,-0.339766 -0.184689,-0.123059 -0.312758,-0.186226 -0.378024,-0.186451 l -0.04632,-1.66e-4 0.03484,0.04496 c 0.109991,0.141941 0.133046,0.178473 0.148235,0.23488 0.02525,0.09376 -0.0099,0.163682 -0.105397,0.209933 -0.09037,0.04375 -0.132975,0.03684 -0.214569,-0.0348 -0.0652,-0.05725 -0.100877,-0.120253 -0.170551,-0.301192 -0.05447,-0.141449 -0.159594,-0.278514 -0.364486,-0.475218 -0.14249,-0.136793 -0.250281,-0.20169 -0.335005,-0.20169 h -0.05116 l 0.0411,0.09293 c 0.05659,0.127956 0.06667,0.22942 0.0304,0.305866 -0.05516,0.116243 -0.226761,0.160668 -0.336529,0.08712 -0.07216,-0.04835 -0.15347,-0.170496 -0.189434,-0.284585 -0.01572,-0.04987 -0.03786,-0.09423 -0.0492,-0.09858 -0.03315,-0.01272 -0.185258,0.109457 -0.23611,0.189641 -0.03677,0.05798 -0.04672,0.09277 -0.04672,0.163393 0,0.126814 0.039,0.195095 0.228045,0.399296 0.176789,0.190958 0.213631,0.260569 0.181861,0.343613 l -0.01766,0.04616 -0.05382,-0.07056 c -0.0296,-0.03881 -0.09763,-0.10588 -0.151166,-0.149043 -0.09049,-0.07296 -0.174601,-0.117871 -0.628655,-0.335721 -0.486302,-0.233321 -0.779279,-0.534126 -0.873183,-0.896511 -0.06876,-0.265347 -0.0041,-0.637953 0.166945,-0.961892 l 0.03453,-0.06539 9.17e-4,0.09809 c 0.0023,0.248158 0.15048,0.548653 0.391002,0.793021 0.130176,0.132257 0.246622,0.196134 0.356904,0.195782 0.128977,-4.11e-4 0.132028,-0.01089 0.04618,-0.158631 -0.269545,-0.463902 -0.374454,-0.952733 -0.280373,-1.306415 0.02525,-0.09492 0.107547,-0.255488 0.16229,-0.316635 0.05244,-0.05857 0.156922,-0.147131 0.173586,-0.147131 0.0078,0 0.0039,0.03427 -0.0087,0.07616 -0.03073,0.102115 -0.0291,0.32195 0.0032,0.431743 0.04161,0.141422 0.125354,0.26127 0.299058,0.427995 0.214518,0.2059 0.37663,0.327241 0.63731,0.477028 0.386801,0.222257 0.595376,0.315937 1.046816,0.470171 0.651477,0.222576 0.989771,0.428592 1.122703,0.68371 0.04354,0.08357 0.04718,0.105172 0.05286,0.314311 0.0061,0.224667 -0.01829,0.497377 -0.0471,0.526615 -0.0096,0.0098 -0.01531,0.0079 -0.01531,-0.0051 z"
       id="path4089"
       inkscape:connector-curvature="0" />
    <path
       style="opacity:1;fill:#0066ff;fill-opacity:1;stroke-width:0.0161902"
       d="M 63.902019,54.236289 C 63.79529,54.09369 63.61513,53.941321 63.454353,53.857675 c -0.08476,-0.0441 -0.318284,-0.12731 -0.665808,-0.237249 -0.57509,-0.18193 -0.619523,-0.199865 -0.757315,-0.305701 -0.214938,-0.165092 -0.306541,-0.437405 -0.231473,-0.688114 l 0.02633,-0.08794 0.01944,0.0651 c 0.04119,0.137958 0.131402,0.213615 0.361165,0.302899 0.110708,0.04302 0.188657,0.05591 0.66933,0.110706 0.338646,0.0386 0.570909,0.07251 0.615228,0.08981 0.112324,0.04385 0.232079,0.129643 0.297233,0.212945 0.08019,0.102531 0.179779,0.311424 0.21019,0.4409 0.03515,0.149653 0.03087,0.582848 -0.0058,0.582848 -0.0057,0 -0.0466,-0.04842 -0.09089,-0.107594 z"
       id="path4091"
       inkscape:connector-curvature="0" />
  </g>
</svg>
